<?xml version="1.0" encoding="UTF-8"?>
<svg id="_レイヤー_1" data-name="レイヤー 1" xmlns="http://www.w3.org/2000/svg" viewBox="0 0 630.41 630.41">
  <defs>
    <style>
      .cls-1 {
        fill: #a66fe4;
      }

      .cls-2 {
        fill: #d2d1d6;
      }

      .cls-3 {
        fill: #fff;
      }

      .cls-4 {
        fill: #212121;
      }

      .cls-5 {
        fill: #ffda52;
      }

      .cls-6 {
        fill: #5a65b1;
      }
    </style>
  </defs>
  <rect class="cls-4" x="289.54" y="289.54" width="50.91" height="50.91" transform="translate(-130.48 315) rotate(-45)"/>
  <rect class="cls-3" x="300.83" y="300.83" width="28.33" height="28.33" transform="translate(-130.48 315) rotate(-45)"/>
  <g>
    <path class="cls-4" d="M306,6.53v265.77l-36,34.11h-115.74c-5.67,0-10.26-4.59-10.26-10.26v-143.77c0-5.09,2.1-9.95,5.8-13.45L295.01,1.79c4.16-3.93,10.99-.98,10.99,4.74Z"/>
    <polyline class="cls-6" points="292.64 270 292.64 17.52 157.36 145.29"/>
  </g>
  <g>
    <path class="cls-4" d="M6.53,324h265.77s34.11,36,34.11,36v115.74c0,5.67-4.59,10.26-10.26,10.26h-143.77c-5.09,0-9.95-2.1-13.45-5.8L1.79,334.99c-3.93-4.16-.98-10.99,4.74-10.99Z"/>
    <polyline class="cls-2" points="270 337.36 17.52 337.36 145.29 472.64"/>
  </g>
  <g>
    <path class="cls-4" d="M324,623.88v-265.77s36-34.11,36-34.11h115.74c5.67,0,10.26,4.59,10.26,10.26v143.77c0,5.09-2.1,9.95-5.8,13.45l-145.21,137.14c-4.16,3.93-10.99.98-10.99-4.74Z"/>
    <polyline class="cls-1" points="337.36 360.41 337.36 612.89 472.64 485.12"/>
  </g>
  <g>
    <path class="cls-4" d="M623.88,306h-265.77s-34.11-36-34.11-36v-115.74c0-5.67,4.59-10.26,10.26-10.26h143.77c5.09,0,9.95,2.1,13.45,5.8l137.14,145.21c3.93,4.16.98,10.99-4.74,10.99Z"/>
    <polyline class="cls-5" points="360.41 292.64 612.89 292.64 485.12 157.36"/>
  </g>
</svg>